# xmcd
# Track frame offsets:
# 150
# 15253
# 31611
# 46247
# 65322
# 80517
# 94770
# 112170
# 129985
# 145447
# 161501
# 174194
# 190162
# 204239
# 221644
# 246622
# 262689
#
# Disc length: 3743 seconds
# Revision: 0
# Processed by: cddbd v1.5.1PL0 Copyright (c) Steve Scherf et al.
# Submitted via: VisiTrax 2.9.10.228 - For more info visit www.synapsa.com
#
DISCID=dd0e9d11
DTITLE=Various Artist - Promo 0261
DYEAR=2005
DGENRE=Country
TTITLE0=Big and Rich - Save A Horse (Ride A Cowboy)
TTITLE1=Jedd Hughes - High Lonesome
TTITLE2=Lisa Brokop - Wildflower
TTITLE3=Tim McGraw - Live Like You Were Dying
TTITLE4=Carolyn Dawn Johnson - Die Of A Broken Heart
TTITLE5=Keith Bryant - Ridin' With The Legend
TTITLE6=Adam Gregory - Never Be Another
TTITLE7=Kenny Chesney - I Go Back
TTITLE8=Doc Walker - North Dakota Boy
TTITLE9=Gary Allan - Nothing On  But The Radio
TTITLE10=Jake Matthews - Time After Time
TTITLE11=Hal Ketchum - My Love Will Not Change
TTITLE12=Alan Jackson - Too Much Of A Good Thing
TTITLE13=Danni - My Kind Of Guy
TTITLE14=Lyle Lovett - In My Own Mind
TTITLE15=Katy Kiefer - Little Man
TTITLE16=King Wilkie - Goodbye So Long
EXTD=
EXTT0=
EXTT1=
EXTT2=
EXTT3=
EXTT4=
EXTT5=
EXTT6=
EXTT7=
EXTT8=
EXTT9=
EXTT10=
EXTT11=
EXTT12=
EXTT13=
EXTT14=
EXTT15=
EXTT16=
PLAYORDER=
